<?xml version="1.0" encoding="UTF-8" standalone="no"?>
<!DOCTYPE svg PUBLIC "-//W3C//DTD SVG 1.1//EN"
 "http://www.w3.org/Graphics/SVG/1.1/DTD/svg11.dtd">
<!-- Generated by graphviz version 2.40.1 (20161225.0304)
 -->
<!-- Title: G Pages: 1 -->
<svg width="435pt" height="476pt"
 viewBox="0.00 0.00 434.69 476.00" xmlns="http://www.w3.org/2000/svg" xmlns:xlink="http://www.w3.org/1999/xlink">
<g id="graph0" class="graph" transform="scale(1 1) rotate(0) translate(4 472)">
<title>G</title>
<polygon fill="#ffffff" stroke="transparent" points="-4,4 -4,-472 430.6859,-472 430.6859,4 -4,4"/>
<!-- utilsc -->
<g id="node1" class="node">
<title>utilsc</title>
<ellipse fill="none" stroke="#000000" cx="70.2062" cy="-450" rx="34.2455" ry="18"/>
<text text-anchor="middle" x="70.2062" y="-445.8" font-family="Times,serif" font-size="14.00" fill="#000000">utils.c</text>
</g>
<!-- compile_utils -->
<g id="node8" class="node">
<title>compile_utils</title>
<polygon fill="none" stroke="#000000" points="140.6192,-396 -.2068,-396 -.2068,-360 140.6192,-360 140.6192,-396"/>
<text text-anchor="middle" x="70.2062" y="-373.8" font-family="Times,serif" font-size="14.00" fill="#000000">gcc &#45;c &#45;o utils.o utils.c</text>
</g>
<!-- utilsc&#45;&gt;compile_utils -->
<g id="edge1" class="edge">
<title>utilsc&#45;&gt;compile_utils</title>
<path fill="none" stroke="#000000" d="M70.2062,-431.8314C70.2062,-424.131 70.2062,-414.9743 70.2062,-406.4166"/>
<polygon fill="#000000" stroke="#000000" points="73.7063,-406.4132 70.2062,-396.4133 66.7063,-406.4133 73.7063,-406.4132"/>
</g>
<!-- utilso -->
<g id="node2" class="node">
<title>utilso</title>
<ellipse fill="none" stroke="#000000" cx="105.2062" cy="-306" rx="34.8287" ry="18"/>
<text text-anchor="middle" x="105.2062" y="-301.8" font-family="Times,serif" font-size="14.00" fill="#000000">utils.o</text>
</g>
<!-- link -->
<g id="node10" class="node">
<title>link</title>
<polygon fill="none" stroke="#000000" points="231.4041,-252 69.0083,-252 69.0083,-216 231.4041,-216 231.4041,-252"/>
<text text-anchor="middle" x="150.2062" y="-229.8" font-family="Times,serif" font-size="14.00" fill="#000000">gcc main.o utils.o &#45;o main</text>
</g>
<!-- utilso&#45;&gt;link -->
<g id="edge5" class="edge">
<title>utilso&#45;&gt;link</title>
<path fill="none" stroke="#000000" d="M116.0994,-288.5708C121.3428,-280.1815 127.7442,-269.9392 133.579,-260.6035"/>
<polygon fill="#000000" stroke="#000000" points="136.6113,-262.3556 138.9433,-252.0206 130.6753,-258.6456 136.6113,-262.3556"/>
</g>
<!-- mainc -->
<g id="node3" class="node">
<title>mainc</title>
<ellipse fill="none" stroke="#000000" cx="232.2062" cy="-450" rx="37.097" ry="18"/>
<text text-anchor="middle" x="232.2062" y="-445.8" font-family="Times,serif" font-size="14.00" fill="#000000">main.c</text>
</g>
<!-- compile_main -->
<g id="node9" class="node">
<title>compile_main</title>
<polygon fill="none" stroke="#000000" points="306.3775,-396 158.0349,-396 158.0349,-360 306.3775,-360 306.3775,-396"/>
<text text-anchor="middle" x="232.2062" y="-373.8" font-family="Times,serif" font-size="14.00" fill="#000000">gcc &#45;c &#45;o main.o main.c</text>
</g>
<!-- mainc&#45;&gt;compile_main -->
<g id="edge3" class="edge">
<title>mainc&#45;&gt;compile_main</title>
<path fill="none" stroke="#000000" d="M232.2062,-431.8314C232.2062,-424.131 232.2062,-414.9743 232.2062,-406.4166"/>
<polygon fill="#000000" stroke="#000000" points="235.7063,-406.4132 232.2062,-396.4133 228.7063,-406.4133 235.7063,-406.4132"/>
</g>
<!-- maino -->
<g id="node4" class="node">
<title>maino</title>
<ellipse fill="none" stroke="#000000" cx="214.2062" cy="-306" rx="37.6806" ry="18"/>
<text text-anchor="middle" x="214.2062" y="-301.8" font-family="Times,serif" font-size="14.00" fill="#000000">main.o</text>
</g>
<!-- maino&#45;&gt;link -->
<g id="edge6" class="edge">
<title>maino&#45;&gt;link</title>
<path fill="none" stroke="#000000" d="M199.3625,-289.3008C191.5537,-280.5159 181.8098,-269.5541 173.0614,-259.7121"/>
<polygon fill="#000000" stroke="#000000" points="175.5744,-257.271 166.3148,-252.1222 170.3425,-261.9216 175.5744,-257.271"/>
</g>
<!-- main -->
<g id="node5" class="node">
<title>main</title>
<ellipse fill="none" stroke="#000000" cx="198.2062" cy="-162" rx="30.1958" ry="18"/>
<text text-anchor="middle" x="198.2062" y="-157.8" font-family="Times,serif" font-size="14.00" fill="#000000">main</text>
</g>
<!-- runmain -->
<g id="node11" class="node">
<title>runmain</title>
<polygon fill="none" stroke="#000000" points="326.2834,-108 160.129,-108 160.129,-72 326.2834,-72 326.2834,-108"/>
<text text-anchor="middle" x="243.2062" y="-85.8" font-family="Times,serif" font-size="14.00" fill="#000000">./main &#45;n data.csv fig1.png</text>
</g>
<!-- main&#45;&gt;runmain -->
<g id="edge9" class="edge">
<title>main&#45;&gt;runmain</title>
<path fill="none" stroke="#000000" d="M208.8706,-144.937C214.1097,-136.5544 220.5456,-126.2569 226.424,-116.8516"/>
<polygon fill="#000000" stroke="#000000" points="229.4997,-118.5342 231.8317,-108.1992 223.5637,-114.8242 229.4997,-118.5342"/>
</g>
<!-- datacsv -->
<g id="node6" class="node">
<title>datacsv</title>
<ellipse fill="none" stroke="#000000" cx="313.2062" cy="-162" rx="42.3144" ry="18"/>
<text text-anchor="middle" x="313.2062" y="-157.8" font-family="Times,serif" font-size="14.00" fill="#000000">data.csv</text>
</g>
<!-- datacsv&#45;&gt;runmain -->
<g id="edge10" class="edge">
<title>datacsv&#45;&gt;runmain</title>
<path fill="none" stroke="#000000" d="M296.9708,-145.3008C288.3455,-136.429 277.5614,-125.3368 267.9202,-115.4201"/>
<polygon fill="#000000" stroke="#000000" points="270.3053,-112.8523 260.825,-108.1222 265.2863,-117.7319 270.3053,-112.8523"/>
</g>
<!-- fig1png -->
<g id="node7" class="node">
<title>fig1png</title>
<ellipse fill="none" stroke="#000000" cx="243.2062" cy="-18" rx="43.4831" ry="18"/>
<text text-anchor="middle" x="243.2062" y="-13.8" font-family="Times,serif" font-size="14.00" fill="#000000">fig1.png</text>
</g>
<!-- compile_utils&#45;&gt;utilso -->
<g id="edge2" class="edge">
<title>compile_utils&#45;&gt;utilso</title>
<path fill="none" stroke="#000000" d="M79.0382,-359.8314C82.9643,-351.7547 87.6692,-342.0761 92.0001,-333.1668"/>
<polygon fill="#000000" stroke="#000000" points="95.2741,-334.4373 96.4983,-323.9134 88.9785,-331.3769 95.2741,-334.4373"/>
</g>
<!-- compile_main&#45;&gt;maino -->
<g id="edge4" class="edge">
<title>compile_main&#45;&gt;maino</title>
<path fill="none" stroke="#000000" d="M227.664,-359.8314C225.6878,-351.9266 223.328,-342.4872 221.1403,-333.7365"/>
<polygon fill="#000000" stroke="#000000" points="224.5055,-332.7659 218.6846,-323.9134 217.7145,-334.4637 224.5055,-332.7659"/>
</g>
<!-- link&#45;&gt;main -->
<g id="edge7" class="edge">
<title>link&#45;&gt;main</title>
<path fill="none" stroke="#000000" d="M162.3186,-215.8314C168.0433,-207.2444 174.9751,-196.8466 181.2143,-187.4878"/>
<polygon fill="#000000" stroke="#000000" points="184.2871,-189.1883 186.922,-178.9263 178.4628,-185.3053 184.2871,-189.1883"/>
</g>
<!-- runmain&#45;&gt;fig1png -->
<g id="edge11" class="edge">
<title>runmain&#45;&gt;fig1png</title>
<path fill="none" stroke="#000000" d="M243.2062,-71.8314C243.2062,-64.131 243.2062,-54.9743 243.2062,-46.4166"/>
<polygon fill="#000000" stroke="#000000" points="246.7063,-46.4132 243.2062,-36.4133 239.7063,-46.4133 246.7063,-46.4132"/>
</g>
<!-- curl -->
<g id="node12" class="node">
<title>curl</title>
<polygon fill="none" stroke="#000000" points="426.6656,-252 249.7468,-252 249.7468,-216 426.6656,-216 426.6656,-252"/>
<text text-anchor="middle" x="338.2062" y="-229.8" font-family="Times,serif" font-size="14.00" fill="#000000">curl http://example.com/data</text>
</g>
<!-- curl&#45;&gt;datacsv -->
<g id="edge8" class="edge">
<title>curl&#45;&gt;datacsv</title>
<path fill="none" stroke="#000000" d="M331.8976,-215.8314C329.1231,-207.8406 325.8041,-198.2819 322.7379,-189.4514"/>
<polygon fill="#000000" stroke="#000000" points="326.0127,-188.2121 319.4261,-179.9134 319.4,-190.5082 326.0127,-188.2121"/>
</g>
</g>
</svg>
